<svg width="364" height="680" viewBox="0 0 364 680" fill="none" xmlns="http://www.w3.org/2000/svg">
<path d="M24 73H0V97H24V73Z" fill="#8E7AD3"/>
<path d="M60 97H24V133H60V97Z" fill="#8E7AD3"/>
<path d="M121 134H85V316H121V134Z" fill="#8E7AD3"/>
<path fill-rule="evenodd" clip-rule="evenodd" d="M346 18H364V36V316H328V36H346V18Z" fill="#7250A4"/>
<path fill-rule="evenodd" clip-rule="evenodd" d="M121 0H85V85H121V36H328H346V18H364V0H346H328H121Z" fill="#8E7AD3"/>
<path fill-rule="evenodd" clip-rule="evenodd" d="M85 316H121V595H103V613H85V595V316Z" fill="#8E7AD3"/>
<path fill-rule="evenodd" clip-rule="evenodd" d="M103 595H121H206V631H121H103H85V613H103V595Z" fill="#7250A4"/>
<path fill-rule="evenodd" clip-rule="evenodd" d="M328 316H364V595V631H291V595H328V316Z" fill="#7250A4"/>
<path d="M254 644H218V680H254V644Z" fill="#7250A4"/>
</svg>
