<svg width="16" height="16" viewBox="0 0 24 24" fill="none" xmlns="http://www.w3.org/2000/svg">
<path d="M17 6.40876V12.4246C17.0001 12.4939 16.9825 12.562 16.9493 12.6217C16.9161 12.6815 16.8684 12.7307 16.8112 12.7644L11.6778 15.7846C11.6234 15.8166 11.5622 15.8333 11.5 15.8333C11.4378 15.8333 11.3766 15.8166 11.3222 15.7846L6.18883 12.7644C6.13158 12.7307 6.08388 12.6815 6.05067 12.6217C6.01747 12.562 5.99997 12.4939 6 12.4246V6.40876C6.00008 6.33953 6.01762 6.27158 6.05083 6.21195C6.08403 6.15231 6.13168 6.10316 6.18883 6.06958L11.3222 3.04873C11.3766 3.01677 11.4378 3 11.5 3C11.5622 3 11.6234 3.01677 11.6778 3.04873L16.8112 6.06958C16.8683 6.10316 16.916 6.15231 16.9492 6.21195C16.9824 6.27158 16.9999 6.33953 17 6.40876Z" stroke="white" stroke-width="0.8" stroke-linecap="round" stroke-linejoin="round"/>
<path d="M10 18L11.8333 19.8333L10 21.5" stroke="white" stroke-width="0.8" stroke-linecap="round" stroke-linejoin="round"/>
<path fill-rule="evenodd" clip-rule="evenodd" d="M3.5 13C2.87875 13.3027 2.34673 13.648 1.93496 14.0327C1.36666 14.5635 1 15.1976 1 15.9083C1 16.619 1.36666 17.2531 1.93496 17.7839C2.50149 18.3131 3.29564 18.7678 4.23662 19.1397C6.12078 19.8841 8.68907 20.3333 11.5 20.3333C11.7761 20.3333 12 20.1211 12 19.8592C12 19.5973 11.7761 19.3851 11.5 19.3851C8.78807 19.3851 6.35637 18.9499 4.62124 18.2644C3.75258 17.9211 3.08226 17.5246 2.63674 17.1084C2.19299 16.6939 2 16.2886 2 15.9083C2 15.528 2.19299 15.1227 2.63674 14.7082C2.86611 14.4939 3.15507 14.2848 3.5 14.0856V13ZM19.5 14.0856C19.8449 14.2848 20.1339 14.4939 20.3633 14.7082C20.807 15.1227 21 15.528 21 15.9083C21 16.4721 20.5654 17.1005 19.5596 17.6961C18.5718 18.2811 17.1377 18.7658 15.4105 19.064C15.1388 19.1109 14.9586 19.3577 15.0081 19.6153C15.0575 19.8729 15.3179 20.0438 15.5895 19.9969C17.3941 19.6854 18.96 19.1691 20.0893 18.5004C21.2005 17.8424 22 16.9645 22 15.9083C22 15.1976 21.6333 14.5635 21.0651 14.0327C20.6533 13.648 20.1213 13.3027 19.5 13V14.0856Z" fill="white"/>
<path d="M6 6.67612L11.3017 9.40808C11.3595 9.4379 11.4245 9.45354 11.4906 9.45354C11.5567 9.45354 11.6217 9.4379 11.6795 9.40808L17 6.6665M11.4909 15.6665V9.50548" stroke="white" stroke-width="0.8" stroke-linecap="round" stroke-linejoin="round"/>
</svg>
