<svg width="16" height="16" viewBox="0 0 18 22" fill="none" xmlns="http://www.w3.org/2000/svg">
<path d="M3.34636 0.601779C4.09432 0.601779 4.77429 0.885121 5.3126 1.42048L7.83556 3.95774L7.97297 4.09585C8.01688 4.13999 8.09055 4.1229 8.11038 4.06452L8.17554 3.88085C8.4192 3.18887 8.78185 2.58802 9.25357 2.09395C10.1984 1.10439 11.489 0.603203 13.0869 0.603203C13.5487 0.603203 14.3023 0.614594 14.4893 0.648766C14.7641 0.697176 14.9865 0.809658 15.1495 0.981941H15.1509L15.1523 0.986212L17.4061 3.25152C17.6157 3.46794 17.7262 3.77833 17.7262 4.15138V9.4238C17.7262 10.2268 17.4713 10.9857 16.991 11.6208C16.5108 12.2544 15.8507 12.7014 15.0843 12.915L14.995 12.9392C14.9582 12.9492 14.9341 12.9819 14.9341 13.0204V17.1167C14.9341 19.3635 13.1152 21.1903 10.8812 21.1903H3.45827C3.26136 21.1903 3.07296 21.1106 2.93271 20.971L1.07414 19.103C0.976392 19.0047 0.922561 18.8723 0.922561 18.7342V9.14331C0.922561 8.1267 1.41979 7.16989 2.25275 6.58754L2.37174 6.50354C2.41424 6.47364 2.4199 6.41241 2.38307 6.37539L2.27966 6.27145L1.37729 5.36448C0.838982 4.82342 0.554246 4.13856 0.554246 3.38536C0.554246 2.63215 0.838982 1.95869 1.38012 1.42048C1.91701 0.885121 2.59698 0.601779 3.34636 0.601779ZM3.34636 0.395325C2.54315 0.395325 1.81218 0.6986 1.23563 1.27383C0.654824 1.85047 0.348839 2.5809 0.348839 3.38536C0.348839 4.18982 0.654824 4.93021 1.23138 5.50971L2.13375 6.41668C1.24271 7.04032 0.715738 8.04696 0.715738 9.14188V18.7285C0.715738 18.9221 0.792234 19.1072 0.928227 19.2439L2.7868 21.112C2.96529 21.2914 3.20612 21.3911 3.45685 21.3911H10.877C13.2257 21.3911 15.1353 19.4717 15.1353 17.111V13.1072C16.7856 12.6488 17.9288 11.1481 17.9288 9.41811V4.14853C17.9288 3.72138 17.7971 3.36115 17.5492 3.10486L15.2939 0.838134C15.1013 0.634527 14.8406 0.500688 14.5205 0.443735C14.2584 0.396749 13.1733 0.395325 13.0855 0.395325C11.4295 0.395325 10.0894 0.919293 9.10483 1.95014C8.61185 2.46557 8.23504 3.09063 7.98147 3.81108L5.45851 1.27383C4.87912 0.6986 4.14957 0.395325 3.34636 0.395325Z" fill="white"/>
<path d="M4.97403 9.47362C4.97403 7.89317 5.75883 7.21401 6.16114 6.96911C6.21497 6.93636 6.19089 6.85236 6.12714 6.85236H4.02491C2.75847 6.85378 1.73144 7.88605 1.73144 9.16038V18.1148C3.5291 18.1148 4.98678 16.6497 4.98678 14.8429L4.97403 9.47362Z" fill="white"/>
<path d="M3.34636 5.39437C3.8875 5.39437 4.35215 5.19788 4.74313 4.80633C5.13269 4.41336 5.32818 3.94634 5.32818 3.40244C5.32818 2.85854 5.13269 2.40434 4.74313 2.01563C4.35215 1.62693 3.8875 1.43329 3.34636 1.43329C2.80522 1.43329 2.34058 1.62693 1.9496 2.01563C1.55861 2.40434 1.36454 2.86708 1.36454 3.40244C1.36454 3.9378 1.56003 4.41336 1.9496 4.80633C2.34058 5.19931 2.80522 5.39437 3.34636 5.39437Z" fill="white"/>
<path d="M12.3984 4.94443C12.7526 4.65824 13.2158 4.51444 13.7881 4.51017H14.6508V1.9487C14.6508 1.64258 14.4043 1.39484 14.0998 1.39484C14.0998 1.39484 13.0954 1.39484 13.0855 1.39484C11.734 1.39484 10.6503 1.82198 9.8358 2.67343C9.02125 3.5263 8.61327 4.73798 8.61327 6.23157V6.85378C7.17401 6.85378 6.00815 8.02559 6.00815 9.4722V9.96769H8.61327V18.1134C10.4053 18.1134 11.8573 16.654 11.8573 14.8528V9.96769C13.4 9.96769 14.6508 8.71045 14.6508 7.15991V6.85378H11.8573V6.26147C11.8573 5.67343 12.0372 5.23347 12.3984 4.94301V4.94443Z" fill="white"/>
</svg>
