<svg width="24" height="24" viewBox="0 0 24 24" fill="none" xmlns="http://www.w3.org/2000/svg">
<path d="M6.34636 1.60178C7.09432 1.60178 7.77429 1.88512 8.3126 2.42048L10.8356 4.95774L10.973 5.09585C11.0169 5.13999 11.0905 5.1229 11.1104 5.06452L11.1755 4.88085C11.4192 4.18887 11.7818 3.58802 12.2536 3.09395C13.1984 2.10439 14.489 1.6032 16.0869 1.6032C16.5487 1.6032 17.3023 1.61459 17.4893 1.64877C17.7641 1.69718 17.9865 1.80966 18.1495 1.98194H18.1509L18.1523 1.98621L20.4061 4.25152C20.6158 4.46794 20.7262 4.77833 20.7262 5.15138V10.4238C20.7262 11.2268 20.4713 11.9857 19.991 12.6208C19.5108 13.2544 18.8507 13.7014 18.0843 13.915L17.995 13.9392C17.9582 13.9492 17.9341 13.9819 17.9341 14.0204V18.1167C17.9341 20.3635 16.1152 22.1903 13.8812 22.1903H6.45827C6.26136 22.1903 6.07296 22.1106 5.93271 21.971L4.07414 20.103C3.97639 20.0047 3.92256 19.8723 3.92256 19.7342V10.1433C3.92256 9.1267 4.41979 8.16989 5.25275 7.58754L5.37174 7.50354C5.41424 7.47364 5.4199 7.41241 5.38307 7.37539L5.27966 7.27145L4.37729 6.36448C3.83898 5.82342 3.55425 5.13856 3.55425 4.38536C3.55425 3.63215 3.83898 2.95869 4.38012 2.42048C4.91701 1.88512 5.59698 1.60178 6.34636 1.60178ZM6.34636 1.39532C5.54315 1.39532 4.81218 1.6986 4.23563 2.27383C3.65482 2.85047 3.34884 3.5809 3.34884 4.38536C3.34884 5.18982 3.65482 5.93021 4.23138 6.50971L5.13375 7.41668C4.24271 8.04032 3.71574 9.04696 3.71574 10.1419V19.7285C3.71574 19.9221 3.79223 20.1072 3.92823 20.2439L5.7868 22.112C5.96529 22.2914 6.20612 22.3911 6.45685 22.3911H13.877C16.2257 22.3911 18.1353 20.4717 18.1353 18.111V14.1072C19.7856 13.6488 20.9288 12.1481 20.9288 10.4181V5.14853C20.9288 4.72138 20.7971 4.36115 20.5492 4.10486L18.2939 1.83813C18.1013 1.63453 17.8406 1.50069 17.5205 1.44373C17.2584 1.39675 16.1733 1.39532 16.0855 1.39532C14.4295 1.39532 13.0894 1.91929 12.1048 2.95014C11.6119 3.46557 11.235 4.09063 10.9815 4.81108L8.45851 2.27383C7.87912 1.6986 7.14957 1.39532 6.34636 1.39532Z" fill="white"/>
<path d="M7.97403 10.4736C7.97403 8.89317 8.75883 8.21401 9.16114 7.96911C9.21497 7.93636 9.19089 7.85236 9.12714 7.85236H7.02491C5.75847 7.85378 4.73144 8.88605 4.73144 10.1604V19.1148C6.5291 19.1148 7.98678 17.6497 7.98678 15.8429L7.97403 10.4736Z" fill="white"/>
<path d="M6.34636 6.39437C6.8875 6.39437 7.35215 6.19788 7.74313 5.80633C8.13269 5.41336 8.32818 4.94634 8.32818 4.40244C8.32818 3.85854 8.13269 3.40434 7.74313 3.01563C7.35215 2.62693 6.8875 2.43329 6.34636 2.43329C5.80522 2.43329 5.34058 2.62693 4.9496 3.01563C4.55861 3.40434 4.36454 3.86708 4.36454 4.40244C4.36454 4.9378 4.56003 5.41336 4.9496 5.80633C5.34058 6.19931 5.80522 6.39437 6.34636 6.39437Z" fill="white"/>
<path d="M15.3984 5.94443C15.7526 5.65824 16.2158 5.51444 16.7881 5.51017H17.6508V2.9487C17.6508 2.64258 17.4043 2.39484 17.0998 2.39484C17.0998 2.39484 16.0954 2.39484 16.0855 2.39484C14.734 2.39484 13.6503 2.82198 12.8358 3.67343C12.0213 4.5263 11.6133 5.73798 11.6133 7.23157V7.85378C10.174 7.85378 9.00815 9.02559 9.00815 10.4722V10.9677H11.6133V19.1134C13.4053 19.1134 14.8573 17.654 14.8573 15.8528V10.9677C16.4 10.9677 17.6508 9.71045 17.6508 8.15991V7.85378H14.8573V7.26147C14.8573 6.67343 15.0372 6.23347 15.3984 5.94301V5.94443Z" fill="white"/>
</svg>
