<svg width="49" height="17" viewBox="0 0 49 17" fill="none" xmlns="http://www.w3.org/2000/svg">
<g clip-path="url(#clip0_676_1212)">
<path d="M2.42875 0.687937C2.97239 0.687937 3.47509 0.866544 3.88459 1.20243L4.26584 1.55032L6.18907 3.37104C6.22437 3.40437 6.28368 3.39104 6.30062 3.34705L6.37123 3.16311C6.56327 2.66328 6.85415 2.21809 7.23682 1.84222C8.01346 1.07981 9.04426 0.690603 10.3038 0.687937H10.3095C10.3518 0.687937 10.8263 0.687937 11.1412 0.687937C11.4363 0.687937 11.7116 0.7999 11.915 1.00117L12.7283 1.87421C12.7552 1.90353 12.8046 1.90353 12.8314 1.87421L12.9232 1.77158C12.9401 1.75292 12.9557 1.73426 12.9726 1.71693C13.5812 1.06381 14.4567 0.68927 15.3731 0.68927L15.8321 0.691936C16.0128 0.691936 16.1851 0.761246 16.3136 0.881206L17.6607 2.14745C17.7906 2.27008 17.864 2.43535 17.864 2.60863V5.32106C17.864 5.37171 17.9233 5.40237 17.9685 5.37438L18.1704 5.25175C18.8284 4.85322 19.8847 4.57331 20.739 4.57331H32.2614C33.4828 4.5853 34.4798 4.94519 35.2253 5.64628L36.5385 6.88587L36.66 6.9965C36.691 7.02583 36.7433 7.01916 36.7659 6.98317L36.8506 6.84588C37.2502 6.1941 37.7783 5.66228 38.4194 5.26508C39.0774 4.85855 40.1421 4.57464 41.0091 4.57464C41.0812 4.57464 41.1518 4.57731 41.2195 4.58131C41.8126 4.61729 42.352 4.75192 42.8236 4.98117L43.0157 5.07448C43.0609 5.0958 43.1145 5.06515 43.1145 5.01716V3.7096C43.1145 2.04082 44.5478 0.687937 46.3157 0.687937H46.7703C46.9539 0.687937 47.129 0.755915 47.2575 0.87854L48.6018 2.14745C48.7317 2.27008 48.8037 2.43535 48.8037 2.6073V13.1731C48.8037 14.8739 47.2279 16.3107 45.3611 16.3107C45.3611 16.3107 42.5497 16.3107 42.5229 16.3081C42.4678 16.3054 42.3308 16.2934 42.3153 16.2921C41.6177 16.2268 40.9385 16.0042 40.3511 15.6483C40.0376 15.459 39.7467 15.2351 39.4869 14.9832L38.5168 14.0675L38.37 13.9289C38.3347 13.8955 38.2754 13.9089 38.2584 13.9528L38.1949 14.1208C38.1652 14.2008 38.1313 14.2781 38.0946 14.3554V14.358L38.0918 14.3607C37.5736 15.5403 36.3521 16.3094 34.9994 16.3094H22.5069C21.6356 16.3094 20.7969 16.0801 20.0809 15.647C19.7999 15.4777 19.5373 15.2804 19.3015 15.0631L18.1012 13.9302L17.9374 13.7756C17.9007 13.7409 17.8372 13.7569 17.8245 13.8049L17.768 14.0195C17.4121 15.363 16.1328 16.3054 14.6657 16.3054H14.2858C14.0557 16.3054 13.8354 16.2188 13.6716 16.0655L11.9771 14.4727C11.9446 14.442 11.891 14.45 11.8698 14.4887L11.795 14.6233C11.233 15.6509 10.1316 16.3094 8.91153 16.3094H2.53183C2.34826 16.3094 2.17316 16.2414 2.04467 16.1188L0.700383 14.8499C0.570473 14.7273 0.498458 14.562 0.498458 14.39V7.14845C0.498458 6.38737 0.893836 5.67028 1.55751 5.23042L1.686 5.14512C1.71989 5.12246 1.72413 5.07581 1.69448 5.04782L1.58433 4.94385L0.871243 4.26941C0.871243 4.26941 0.792167 4.19344 0.754042 4.15078V4.14945L0.751217 4.14678C0.481514 3.85488 0.290885 3.499 0.230166 3.11646C0.118613 2.42069 0.343131 1.78357 0.861358 1.29973C1.29063 0.898534 1.83427 0.685272 2.43157 0.685272M36.6769 6.74725L35.3665 5.51033C34.58 4.77324 33.5379 4.39737 32.2656 4.38537C32.2656 4.38537 20.7503 4.38537 20.7404 4.38537C19.848 4.38537 18.7536 4.67594 18.0645 5.09314V2.60996C18.0645 2.38737 17.9699 2.17278 17.8033 2.01549L16.4562 0.74925C16.291 0.594635 16.0679 0.506664 15.8363 0.503999L15.3774 0.501333C14.3621 0.501333 13.4499 0.923859 12.8258 1.59297C12.8074 1.61163 12.7905 1.63162 12.7721 1.65162L12.0647 0.877208C11.8317 0.643952 11.5041 0.5 11.1412 0.5C11.1412 0.5 10.3137 0.5 10.3038 0.5C8.98919 0.502666 7.90896 0.91053 7.0942 1.7116C6.69035 2.10746 6.38817 2.56864 6.18484 3.09913L6.03516 2.95651L5.88548 2.81523L4.30679 1.32106L4.01591 1.05981C3.56828 0.693269 3.02323 0.5 2.42875 0.5C1.77779 0.5 1.18613 0.73059 0.71874 1.16778C0.248523 1.60763 0 2.16345 0 2.77524C0 3.33772 0.206161 3.85222 0.598715 4.27341C0.598715 4.27341 0.601539 4.27607 0.601539 4.27741C0.601539 4.27741 0.601539 4.27741 0.602951 4.27874C0.638252 4.31739 1.44172 5.07847 1.44172 5.07847C0.751217 5.53699 0.297945 6.29407 0.297945 7.14978V14.3914C0.297945 14.614 0.391141 14.8272 0.557765 14.9845L1.90205 16.2534C2.06867 16.4107 2.2946 16.4987 2.53042 16.4987H8.90729C10.2417 16.4987 11.3925 15.7589 11.9672 14.7113L13.5855 16.2561C13.7478 16.4094 13.9695 16.496 14.1997 16.496H14.6629C16.2528 16.496 17.5901 15.459 17.9586 14.0648L19.1589 15.1978C19.406 15.4257 19.6771 15.6283 19.9708 15.8069C20.7192 16.2601 21.5947 16.4987 22.504 16.4987H35.0135C36.4863 16.4987 37.7487 15.6443 38.274 14.4327C38.3107 14.3567 38.3432 14.2794 38.3728 14.2008L39.3429 15.1165C39.6126 15.3777 39.912 15.6083 40.241 15.8069C40.8552 16.1788 41.557 16.4107 42.2927 16.48C42.3054 16.48 42.4494 16.4933 42.5102 16.496C42.5497 16.4987 45.3597 16.4987 45.3597 16.4987C47.3055 16.4987 49 15.0098 49 13.1731V2.60863C49 2.38604 48.9068 2.17278 48.7402 2.01549L47.3959 0.746584C47.2293 0.589304 47.0033 0.501333 46.7675 0.501333H46.3128C44.4348 0.501333 42.914 1.93819 42.914 3.7096V4.81456C42.417 4.57331 41.855 4.43336 41.2322 4.3947C41.1602 4.3907 41.0854 4.38804 41.0091 4.38804C40.1068 4.38804 38.9969 4.68527 38.3107 5.10913C37.6414 5.52366 37.0935 6.07547 36.6783 6.75258" fill="#E1E4E9"/>
<path d="M23.4642 5.39283H25.595C25.8422 5.39283 26.0413 5.5821 26.0413 5.81402V11.3628C26.0413 12.7064 24.8876 13.7954 23.4642 13.7954V12.5918C22.8542 13.4461 21.9844 13.9007 20.8562 13.958C20.0089 14.0006 19.1744 13.7914 18.4712 13.3462C17.8513 12.953 17.3599 12.4252 16.9998 11.764C16.6313 11.0883 16.4463 10.3512 16.4463 9.55411C16.4463 8.75704 16.6299 8.02129 16.9998 7.34418C17.3613 6.6804 17.8527 6.15524 18.4754 5.76737C19.077 5.39283 20.1473 5.12892 20.866 5.16757C21.99 5.22755 22.8556 5.68473 23.4642 6.54178V5.3955V5.39283ZM21.2176 11.6401C21.8474 11.6401 22.3798 11.4401 22.8133 11.0376C23.2468 10.6364 23.4642 10.1406 23.4642 9.55145C23.4642 8.96231 23.2468 8.47447 22.8133 8.06927C22.3798 7.66541 21.8488 7.46414 21.2191 7.46281C20.6401 7.46281 20.0739 7.67341 19.6545 8.05061C19.1984 8.46248 18.9696 8.96231 18.9696 9.55011C18.9696 10.1379 19.1885 10.6271 19.6248 11.031C20.0612 11.4348 20.5921 11.6374 21.2162 11.6374L21.2176 11.6401Z" fill="#E1E4E9"/>
<path d="M32.2019 5.15954C33.3485 5.15954 34.2494 5.50076 34.9046 6.18186C35.5584 6.86297 35.886 7.80532 35.886 9.00625V11.3628C35.886 12.7064 34.7323 13.7953 33.3089 13.7953V9.31682C33.3089 8.76633 33.1466 8.32381 32.8232 7.98659C32.4984 7.64937 32.072 7.48143 31.5439 7.48143C31.0158 7.48143 30.5794 7.64804 30.2547 7.98259C29.9299 8.31715 29.7689 8.761 29.7689 9.31682V11.3628C29.7689 12.7064 28.6153 13.7953 27.1919 13.7953V5.81398C27.1919 5.58073 27.3924 5.39279 27.6381 5.39279H29.7689V6.43778C30.3634 5.58473 31.1753 5.1582 32.2033 5.1582L32.2019 5.15954Z" fill="#E1E4E9"/>
<path d="M46.3127 1.27686V11.3628C46.3127 12.7064 45.1591 13.7953 43.7357 13.7953V12.5918C43.1257 13.4461 42.2559 13.9006 41.1276 13.958C40.2804 14.0006 39.4459 13.7914 38.7427 13.3462C38.1228 12.953 37.6314 12.4251 37.2713 11.764C36.9028 11.0883 36.7178 10.3512 36.7178 9.5541C36.7178 8.75703 36.9013 8.02127 37.2713 7.34417C37.6328 6.68039 38.1242 6.15523 38.7469 5.76736C39.3484 5.39282 40.4188 5.1289 41.1389 5.16756C42.2629 5.22754 43.1285 5.68472 43.7371 6.54177V3.71204C43.7371 2.36849 44.8908 1.27952 46.3142 1.27952L46.3127 1.27686ZM41.4877 11.6414C42.1175 11.6414 42.6498 11.4415 43.0834 11.0389C43.5169 10.6377 43.7343 10.1419 43.7343 9.55276C43.7343 8.96363 43.5169 8.47579 43.0834 8.07059C42.6498 7.66673 42.1189 7.46546 41.4891 7.46413C40.9102 7.46413 40.3439 7.67339 39.9246 8.05193C39.4685 8.46379 39.2397 8.96363 39.2397 9.55276C39.2397 10.1419 39.4586 10.6297 39.8949 11.0336C40.3312 11.4375 40.8622 11.6401 41.4863 11.6401L41.4877 11.6414Z" fill="#E1E4E9"/>
<path d="M3.74753 7.38951C3.74753 6.18724 4.38296 5.67008 4.70915 5.48481C4.75292 5.45949 4.73315 5.39551 4.68232 5.39551H2.97937C1.9528 5.39684 1.12109 6.18191 1.12109 7.15092V13.9633C2.57693 13.9633 3.75883 12.849 3.75883 11.4735L3.74894 7.38818L3.74753 7.38951Z" fill="#E1E4E9"/>
<path d="M2.42876 4.29063C2.8665 4.29063 3.24352 4.14135 3.55982 3.84278C3.87612 3.54421 4.03427 3.18833 4.03427 2.77514C4.03427 2.36194 3.87612 2.01539 3.55982 1.71949C3.24352 1.42359 2.8665 1.27563 2.42876 1.27563C1.99102 1.27563 1.614 1.42359 1.2977 1.71949C0.981393 2.01539 0.823242 2.36727 0.823242 2.77514C0.823242 3.183 0.981393 3.54421 1.2977 3.84278C1.614 4.14135 1.99102 4.29063 2.42876 4.29063Z" fill="#E1E4E9"/>
<path d="M15.3744 1.27686V11.5281C15.3744 12.8717 14.2207 13.9606 12.7974 13.9606V3.70938C12.7974 2.36583 13.951 1.27686 15.3744 1.27686Z" fill="#E1E4E9"/>
<path d="M9.76305 3.97875C10.0497 3.76149 10.4253 3.65086 10.8885 3.6482H11.5874V1.69951C11.5874 1.46626 11.3869 1.27832 11.1412 1.27832C11.1412 1.27832 10.3279 1.27832 10.3194 1.27832C9.22505 1.27832 8.34675 1.60221 7.68732 2.25133C7.02647 2.90045 6.69746 3.78415 6.69746 4.92111V5.39428C5.53251 5.39428 4.58643 6.28598 4.58643 7.38695V7.76283H6.69746V13.9621C8.14906 13.9621 9.32531 12.8518 9.32531 11.4816V7.76283C10.575 7.76283 11.5888 6.80581 11.5888 5.6262V5.39295H9.32531V4.94243C9.32531 4.49458 9.47075 4.19868 9.76305 3.97742V3.97875Z" fill="#E1E4E9"/>
</g>
<defs>
<clipPath id="clip0_676_1212">
<rect width="49" height="16" fill="white" transform="translate(0 0.5)"/>
</clipPath>
</defs>
</svg>
