<svg width="16" height="16" viewBox="0 0 16 16" fill="none" xmlns="http://www.w3.org/2000/svg">
<g id="icon-3d_2">
<path id="Vector" d="M11.3333 4.2725V8.28305C11.3334 8.32926 11.3217 8.37466 11.2996 8.41449C11.2774 8.45432 11.2456 8.48716 11.2074 8.50959L7.78522 10.5231C7.74896 10.5444 7.70814 10.5556 7.66667 10.5556C7.62519 10.5556 7.58437 10.5444 7.54811 10.5231L4.12589 8.50959C4.08772 8.48716 4.05592 8.45432 4.03378 8.41449C4.01164 8.37466 3.99998 8.32926 4 8.28305V4.2725C4.00005 4.22635 4.01175 4.18105 4.03388 4.1413C4.05602 4.10154 4.08778 4.06877 4.12589 4.04639L7.54811 2.03249C7.58437 2.01118 7.62519 2 7.66667 2C7.70814 2 7.74896 2.01118 7.78522 2.03249L11.2074 4.04639C11.2455 4.06877 11.2773 4.10154 11.2994 4.1413C11.3216 4.18105 11.3333 4.22635 11.3333 4.2725Z" stroke="#E1E4E9" stroke-width="0.8" stroke-linecap="round" stroke-linejoin="round"/>
<path id="Vector_2" d="M6.66699 12L7.88921 13.2222L6.66699 14.3333" stroke="#E1E4E9" stroke-width="0.8" stroke-linecap="round" stroke-linejoin="round"/>
<path id="Vector_3" d="M10.3933 13.3313C10.2122 13.3626 10.0387 13.2486 10.0057 13.0769L13.3932 12.3336C12.6403 12.7794 11.5964 13.1236 10.3933 13.3313ZM10.3933 13.3313L10.3537 13.1015L10.3933 13.3313Z" fill="#E1E4E9" stroke="#E1E4E9" stroke-width="0.8"/>
<path id="Vector_4" d="M4 4.45075L7.53445 6.27206C7.57299 6.29194 7.61633 6.30236 7.6604 6.30236C7.70447 6.30236 7.74781 6.29194 7.78635 6.27206L11.3333 4.44434M7.66062 10.4443V6.33699" stroke="#E1E4E9" stroke-width="0.8" stroke-linecap="round" stroke-linejoin="round"/>
</g>
</svg>
