<svg width="56" height="53" viewBox="0 0 56 53" fill="none" xmlns="http://www.w3.org/2000/svg">
<g clip-path="url(#clip0_674_4995)">
<path d="M4.0127 5.68164C3.88379 5.19824 3.51318 4.88135 2.83105 4.87598C2.11133 4.88135 1.60107 5.26807 1.5957 5.75684C1.60107 6.14355 1.9126 6.40674 2.59473 6.57324L3.46484 6.78809C4.50684 7.03516 5.01709 7.55615 5.02246 8.36719C5.01709 9.37695 4.19531 10.1235 2.73438 10.1182C1.42383 10.1235 0.64502 9.53809 0.489258 8.47461H1.45605C1.56348 9.04395 1.97705 9.31787 2.71289 9.3125C3.54541 9.31787 4.06641 8.96875 4.06641 8.4209C4.06641 8.00732 3.771 7.73877 3.11035 7.58301L2.22949 7.37891C1.21436 7.14258 0.671875 6.58936 0.671875 5.81055C0.671875 4.81152 1.54736 4.0918 2.83105 4.0918C4.03955 4.0918 4.79688 4.73633 4.91504 5.68164H4.0127ZM8.61035 10.1182C6.95605 10.1235 5.94629 8.86133 5.94629 7.11035C5.94629 5.33789 7.00439 4.0918 8.58887 4.0918C9.82959 4.0918 10.7642 4.82764 10.9092 5.92871H9.98535C9.85107 5.39697 9.38916 4.9082 8.61035 4.9082C7.56836 4.9082 6.87549 5.76758 6.87012 7.07812C6.87549 8.42627 7.55225 9.29102 8.61035 9.29102C9.29785 9.29102 9.82422 8.92041 9.98535 8.28125H10.9092C10.7642 9.32324 9.90479 10.1235 8.61035 10.1182ZM12.0479 10V4.16699H12.9395V5.05859H13.0039C13.2134 4.46777 13.8203 4.07568 14.5078 4.07031C14.6475 4.07568 14.8838 4.08105 14.9912 4.0918V5.02637C14.9214 5.01025 14.6743 4.96191 14.4326 4.96191C13.5947 4.96191 12.9717 5.54199 12.9717 6.32617V10H12.0479ZM18.085 10.1182C16.4951 10.1235 15.4209 8.92041 15.4209 7.11035C15.4209 5.28955 16.4951 4.0918 18.085 4.0918C19.6694 4.0918 20.7329 5.28955 20.7275 7.11035C20.7329 8.92041 19.6694 10.1235 18.085 10.1182ZM16.3447 7.11035C16.3501 8.27588 16.8979 9.30176 18.085 9.30176C19.2612 9.30176 19.8037 8.27588 19.8037 7.11035C19.8037 5.9502 19.2612 4.9082 18.085 4.9082C16.8979 4.9082 16.3501 5.9502 16.3447 7.11035ZM22.8652 2.22266V10H21.9414V2.22266H22.8652ZM25.2607 2.22266V10H24.3369V2.22266H25.2607ZM31.6953 10.1182C30.2397 10.1235 29.2139 8.95264 29.2139 7.09961C29.2139 5.25195 30.2397 4.0918 31.7061 4.0918C32.8394 4.0918 33.1938 4.7793 33.3926 5.09082H33.457V2.22266H34.3916V10H33.4893V9.1084H33.3926C33.1885 9.43066 32.8071 10.1235 31.6953 10.1182ZM30.1484 7.07812C30.1484 8.31885 30.7178 9.29102 31.8242 9.29102C32.8931 9.29102 33.4839 8.38867 33.4893 7.07812C33.4839 5.78369 32.9092 4.91895 31.8242 4.91895C30.7017 4.91895 30.1484 5.85889 30.1484 7.07812ZM38.377 10.1182C36.7871 10.1235 35.7129 8.92041 35.7129 7.11035C35.7129 5.28955 36.7871 4.0918 38.377 4.0918C39.9614 4.0918 41.0249 5.28955 41.0195 7.11035C41.0249 8.92041 39.9614 10.1235 38.377 10.1182ZM36.6367 7.11035C36.6421 8.27588 37.1899 9.30176 38.377 9.30176C39.5532 9.30176 40.0957 8.27588 40.0957 7.11035C40.0957 5.9502 39.5532 4.9082 38.377 4.9082C37.1899 4.9082 36.6421 5.9502 36.6367 7.11035ZM43.3506 10L41.5781 4.16699H42.5557L43.8018 8.61426H43.8555L45.0908 4.16699H46.0791L47.293 8.59277H47.3574L48.6035 4.16699H49.5703L47.7979 10H46.8848L45.6172 5.55273H45.5312L44.2744 10H43.3506ZM51.5146 6.49805V10H50.5908V4.16699H51.4824V5.08008H51.5576C51.8315 4.48389 52.3794 4.0918 53.2656 4.0918C54.4473 4.0918 55.2368 4.81152 55.2314 6.29395V10H54.3076V6.3584C54.3076 5.45605 53.8135 4.91895 52.9863 4.91895C52.1377 4.91895 51.5146 5.48828 51.5146 6.49805Z" fill="#878F9B"/>
<path d="M38 33.3333L28 42.3333L18 33.3333" stroke="#878F9B" stroke-width="2" stroke-linecap="round"/>
<path d="M38 24L28 33L18 24" stroke="#878F9B" stroke-width="2" stroke-linecap="round"/>
</g>
<defs>
<clipPath id="clip0_674_4995">
<rect width="56" height="53" fill="white"/>
</clipPath>
</defs>
</svg>
