<svg width="66" height="16" viewBox="0 0 66 20" fill="none" xmlns="http://www.w3.org/2000/svg">
<path d="M32.5204 6.33961H35.5644C35.9174 6.33961 36.2018 6.62352 36.2018 6.9714V15.2946C36.2018 17.31 34.5537 18.9434 32.5204 18.9434V17.138C31.6489 18.4196 30.4063 19.1014 28.7945 19.1873C27.5842 19.2513 26.392 18.9374 25.3874 18.2696C24.5019 17.6798 23.7999 16.8881 23.2855 15.8964C22.759 14.8828 22.4947 13.7771 22.4947 12.5815C22.4947 11.3859 22.757 10.2823 23.2855 9.26664C23.8019 8.27097 24.5039 7.48323 25.3935 6.90143C26.2528 6.33961 27.7819 5.94375 28.8087 6.00173C30.4144 6.0917 31.6509 6.77747 32.5204 8.06304V6.34361V6.33961ZM29.3109 15.7105C30.2106 15.7105 30.9711 15.4106 31.5904 14.8068C32.2097 14.205 32.5204 13.4612 32.5204 12.5775C32.5204 11.6938 32.2097 10.9621 31.5904 10.3543C30.9711 9.74848 30.2126 9.44658 29.313 9.44458C28.4859 9.44458 27.677 9.76047 27.0779 10.3263C26.4263 10.9441 26.0995 11.6938 26.0995 12.5755C26.0995 13.4572 26.4122 14.191 27.0355 14.7968C27.6588 15.4026 28.4173 15.7065 29.3089 15.7065L29.3109 15.7105Z" fill="white"/>
<path d="M45.003 5.98973C46.641 5.98973 47.928 6.50156 48.864 7.52322C49.798 8.54488 50.266 9.95841 50.266 11.7598V15.2946C50.266 17.31 48.6179 18.9434 46.5845 18.9434V12.2257C46.5845 11.3999 46.3525 10.7361 45.8906 10.2303C45.4266 9.72449 44.8174 9.47257 44.063 9.47257C43.3085 9.47257 42.6852 9.72249 42.2212 10.2243C41.7573 10.7262 41.5273 11.3919 41.5273 12.2257V15.2946C41.5273 17.31 39.8792 18.9434 37.8459 18.9434V6.9714C37.8459 6.62152 38.1323 6.33961 38.4833 6.33961H41.5273V7.90709C42.3766 6.62752 43.5365 5.98773 45.005 5.98773L45.003 5.98973Z" fill="white"/>
<path d="M65.1612 0.165649V15.2946C65.1612 17.3099 63.5131 18.9434 61.4798 18.9434V17.138C60.6083 18.4196 59.3657 19.1013 57.7539 19.1873C56.5436 19.2513 55.3514 18.9374 54.3468 18.2696C53.4612 17.6798 52.7593 16.8881 52.2449 15.8964C51.7184 14.8827 51.4541 13.7771 51.4541 12.5815C51.4541 11.3859 51.7163 10.2823 52.2449 9.26661C52.7613 8.27095 53.4633 7.48321 54.3529 6.9014C55.2122 6.33959 56.7413 5.94372 57.7701 6.0017C59.3758 6.09167 60.6123 6.77745 61.4818 8.06302V3.81843C61.4818 1.8031 63.1298 0.169648 65.1632 0.169648L65.1612 0.165649ZM58.2683 15.7125C59.168 15.7125 59.9285 15.4126 60.5478 14.8088C61.1671 14.207 61.4777 13.4632 61.4777 12.5795C61.4777 11.6958 61.1671 10.9641 60.5478 10.3563C59.9285 9.75045 59.17 9.44855 58.2703 9.44656C57.4433 9.44656 56.6344 9.76045 56.0352 10.3283C55.3837 10.9461 55.0569 11.6958 55.0569 12.5795C55.0569 13.4632 55.3696 14.195 55.9929 14.8008C56.6162 15.4066 57.3747 15.7105 58.2663 15.7105L58.2683 15.7125Z" fill="white"/>
<path d="M4.35374 9.33457C4.35374 7.53117 5.26149 6.75543 5.72747 6.47752C5.79001 6.43954 5.76177 6.34357 5.68915 6.34357H3.25636C1.78983 6.34557 0.601685 7.52317 0.601685 8.97669V19.1953C2.68145 19.1953 4.36988 17.5238 4.36988 15.4605L4.35575 9.33257L4.35374 9.33457Z" fill="white"/>
<path d="M2.46964 4.68613C3.09498 4.68613 3.63359 4.4622 4.08545 4.01435C4.53731 3.5665 4.76324 3.03268 4.76324 2.41289C4.76324 1.79309 4.53731 1.27327 4.08545 0.829413C3.63359 0.385561 3.09498 0.163635 2.46964 0.163635C1.8443 0.163635 1.3057 0.385561 0.853838 0.829413C0.401978 1.27327 0.176048 1.80109 0.176048 2.41289C0.176048 3.02468 0.401978 3.5665 0.853838 4.01435C1.3057 4.4622 1.8443 4.68613 2.46964 4.68613Z" fill="white"/>
<path d="M20.9636 0.165649V15.5425C20.9636 17.5578 19.3156 19.1913 17.2822 19.1913V3.81443C17.2822 1.7991 18.9303 0.165649 20.9636 0.165649Z" fill="white"/>
<path d="M12.9471 4.21831C13.3566 3.89242 13.8932 3.72648 14.5549 3.72248H15.5534V0.799453C15.5534 0.44957 15.267 0.167664 14.916 0.167664C14.916 0.167664 13.754 0.167664 13.7419 0.167664C12.1786 0.167664 10.9239 0.653502 9.98181 1.62718C9.03775 2.60085 8.56773 3.92641 8.56773 5.63184V6.34161C6.90352 6.34161 5.55197 7.67916 5.55197 9.33061V9.89442H8.56773V19.1933C10.6415 19.1933 12.3218 17.5279 12.3218 15.4726V9.89442C14.1071 9.89442 15.5554 8.4589 15.5554 6.68949V6.33961H12.3218V5.66383C12.3218 4.99206 12.5296 4.5482 12.9471 4.21631V4.21831Z" fill="white"/>
</svg>
