<svg width="273" height="60" viewBox="0 0 273 60" fill="none" xmlns="http://www.w3.org/2000/svg">
<path d="M47.7838 25.0033H52.3195C52.8448 25.0033 53.2682 25.4289 53.2682 25.9478V38.406C53.2682 41.4222 50.8131 43.8668 47.7838 43.8668V41.1627C46.4687 43.1005 44.5917 44.1262 42.1488 44.2357C40.4509 44.3127 38.7531 43.8789 37.3199 42.9668C35.9193 42.0749 34.82 40.8505 34.0179 39.3019C33.2321 37.7816 32.8412 36.1276 32.8412 34.3397C32.8412 32.5519 33.2321 30.8978 34.0179 29.3776C34.7915 27.8776 35.8501 26.6897 37.1855 25.8181C38.4762 24.9749 40.797 24.3911 42.3361 24.4924C44.6854 24.6465 46.5013 25.6722 47.7797 27.5735V24.9992L47.7838 25.0033ZM42.9997 39.0343C44.3393 39.0343 45.4752 38.5843 46.3995 37.6843C47.3237 36.7843 47.7838 35.6695 47.7838 34.3478C47.7838 33.0262 47.3237 31.9276 46.3995 31.0195C45.4997 30.1357 44.4003 29.6816 43.1015 29.6614C41.7986 29.6411 40.5324 30.1357 39.604 31.0519C38.6798 31.96 38.2197 33.0627 38.2197 34.3519C38.2197 35.6411 38.6839 36.7722 39.6163 37.6803C40.5446 38.5884 41.6765 39.0424 43.0038 39.0424L42.9997 39.0343Z" fill="white"/>
<path d="M66.1995 24.4761C68.6425 24.4761 70.5602 25.2424 71.9527 26.7748C73.3451 28.3072 74.0414 30.4194 74.0414 33.1153V38.4099C74.0414 41.4261 71.5862 43.8707 68.557 43.8707V33.8126C68.557 32.5761 68.2109 31.5829 67.5228 30.8248C66.8347 30.0667 65.9268 29.6896 64.7989 29.6896C63.6711 29.6896 62.7469 30.0667 62.0547 30.8126C61.3666 31.5626 61.0205 32.5599 61.0205 33.8086V38.4018C61.0205 41.418 58.5654 43.8626 55.5361 43.8626V25.9478C55.5361 25.4248 55.9636 25.0032 56.4848 25.0032H61.0205V27.3505C62.2868 25.4369 64.0131 24.4761 66.2036 24.4761H66.1995Z" fill="white"/>
<path d="M96.3412 15.76V38.41C96.3412 41.4262 93.886 43.8708 90.8568 43.8708V41.1668C89.5417 43.1046 87.6647 44.1303 85.2218 44.2397C83.5239 44.3168 81.8261 43.883 80.3929 42.9708C78.9923 42.0789 77.893 40.8546 77.0909 39.306C76.3051 37.7857 75.9142 36.1316 75.9142 34.3438C75.9142 32.556 76.3051 30.9019 77.0909 29.3816C77.8645 27.8816 78.9231 26.6938 80.2626 25.8222C81.5533 24.9789 83.87 24.3992 85.4091 24.4965C87.7584 24.6505 89.5743 25.6762 90.8527 27.5776V21.2208C90.8527 18.2046 93.3079 15.76 96.3371 15.76H96.3412ZM86.0727 39.0343C87.4123 39.0343 88.5482 38.5843 89.4725 37.6843C90.3967 36.7843 90.8568 35.6695 90.8568 34.3478C90.8568 33.0262 90.3967 31.9276 89.4725 31.0195C88.5727 30.1357 87.4693 29.6816 86.1704 29.6573C84.8675 29.637 83.6013 30.1316 82.677 31.0438C81.7528 31.956 81.2886 33.0546 81.2886 34.3438C81.2886 35.633 81.7528 36.7641 82.6852 37.6722C83.6135 38.5803 84.7454 39.0343 86.0727 39.0343Z" fill="white"/>
<path d="M6.22543 29.4829C6.22543 26.7829 7.57718 25.6234 8.27342 25.2059C8.36707 25.1491 8.32635 25.0072 8.21642 25.0072H4.58866C2.40223 25.0072 0.631104 26.7748 0.631104 28.9477V44.2477C3.73363 44.2477 6.24578 41.7464 6.24578 38.6572L6.22543 29.4829Z" fill="white"/>
<path d="M3.42011 22.5262C4.3525 22.5262 5.15459 22.1897 5.83047 21.5207C6.50228 20.8518 6.84022 20.0491 6.84022 19.1207C6.84022 18.1924 6.50228 17.414 5.83047 16.7491C5.15867 16.0843 4.3525 15.7518 3.42011 15.7518C2.48772 15.7518 1.68563 16.0843 1.00975 16.7491C0.337939 17.414 0 18.2045 0 19.1207C0 20.037 0.337939 20.8478 1.00975 21.5207C1.68155 22.1897 2.48772 22.5262 3.42011 22.5262Z" fill="white"/>
<path d="M30.9805 15.76V38.7789C30.9805 41.7951 28.5253 44.2397 25.4961 44.2397V21.2208C25.4961 18.2046 27.9512 15.76 30.9805 15.76Z" fill="white"/>
<path d="M19.0344 21.8249C19.6451 21.3384 20.4431 21.0911 21.4325 21.083H22.9227V16.7046C22.9227 16.1816 22.4952 15.76 21.974 15.76C21.974 15.76 20.2436 15.76 20.2233 15.76C17.8903 15.76 16.0255 16.4897 14.6208 17.9451C13.2161 19.4006 12.5117 21.387 12.5117 23.9411V25.0033C10.0321 25.0033 8.01672 27.006 8.01672 29.4789V30.3262H12.5117V44.2478C15.602 44.2478 18.106 41.7546 18.106 38.6776V30.3262C20.7648 30.3262 22.9227 28.1776 22.9227 25.5303V25.0073H18.106V23.9938C18.106 22.9884 18.4155 22.3235 19.0384 21.8249H19.0344Z" fill="white"/>
<path d="M135.822 41.765L112.187 18.2352" stroke="white" stroke-width="2.5" stroke-miterlimit="10"/>
<path d="M112.187 41.765L135.822 18.2352" stroke="white" stroke-width="2.5" stroke-miterlimit="10"/>
<g clip-path="url(#clip0_314_1820)">
<path d="M216.845 1.33307V2.53934H215.621V25.4737H218.07V2.53934V1.33307H216.845Z" fill="#9D9D9D"/>
<path d="M195.416 4.35065H194.191V5.55818H195.416V4.35065Z" fill="#F0F0F0"/>
<path d="M197.866 6.76447H195.416V9.17827H197.866V6.76447Z" fill="#F0F0F0"/>
<path d="M216.845 0.125549H215.621H202.15H199.702V5.55693H202.15V2.53936H215.621H216.845V1.33308H218.07V0.125549H216.845Z" fill="#F0F0F0"/>
<path d="M202.152 8.57452H199.702V20.6448H202.152V8.57452Z" fill="#F0F0F0"/>
<path d="M199.702 36.3364V54.4431V55.6494H200.927V54.4431H202.15V36.3364H199.702Z" fill="#F0F0F0"/>
<path d="M200.927 54.4431V55.6494H199.702V56.8569H200.927H202.15H208.273V54.4431H202.15H200.927Z" fill="#9D9D9D"/>
<path d="M215.621 42.3728V54.4431H213.172V56.8569H218.07V54.4431V42.3728H215.621Z" fill="#9D9D9D"/>
<path d="M211.336 57.4607H208.886V59.8745H211.336V57.4607Z" fill="#9D9D9D"/>
<path d="M151.795 22.9336H155.11V34.0901H151.795V22.9336Z" fill="white"/>
<path d="M158.006 22.9331H161.403L166.68 30.9327H166.77C166.614 29.7528 166.647 22.9331 166.647 22.9331H169.505V34.0896H166.108L160.831 26.09H160.741C160.897 27.3201 160.909 34.0896 160.909 34.0896H158.006V22.9331Z" fill="white"/>
<path d="M175.275 25.0482H171.239V22.9331H182.628V25.0482H178.591V34.0896H175.276V25.0482H175.275Z" fill="white"/>
<path d="M184.354 22.9331H193.544V25.0482H187.671V27.2888H192.671V29.4038H187.671V31.9745H193.769V34.0896H184.356V22.9331H184.354Z" fill="white"/>
<path d="M207.771 34.0896L204.452 29.6272C206.019 29.0887 207.064 28.0469 207.064 26.4063C207.064 23.754 204.515 22.9318 201.404 22.9318H196.122V34.0883H199.437V30.0753H201.261L204.061 34.0908H207.771V34.0896ZM199.437 24.9352H201.133C202.877 24.9352 203.814 25.303 203.814 26.4063C203.814 27.5034 202.877 28.0707 201.133 28.0707H199.437V24.9352Z" fill="white"/>
<path d="M215.04 31.7021H212.032C211.827 31.7021 211.661 31.5389 211.661 31.3368V28.3745C211.661 28.1724 211.827 28.0092 212.032 28.0092H215.04C215.245 28.0092 215.41 28.1724 215.41 28.3745V31.3368C215.409 31.5389 215.244 31.7021 215.04 31.7021Z" fill="white"/>
<path d="M222.959 31.7021H219.951C219.746 31.7021 219.581 31.5389 219.581 31.3368V28.3745C219.581 28.1724 219.746 28.0092 219.951 28.0092H222.959C223.164 28.0092 223.33 28.1724 223.33 28.3745V31.3368C223.329 31.5389 223.163 31.7021 222.959 31.7021Z" fill="white"/>
<path d="M216.698 35.8017H213.69C213.485 35.8017 213.319 35.6385 213.319 35.4364V32.474C213.319 32.2719 213.485 32.1088 213.69 32.1088H216.698C216.903 32.1088 217.069 32.2719 217.069 32.474V35.4364C217.069 35.6385 216.903 35.8017 216.698 35.8017Z" fill="white"/>
<path d="M221.262 35.8017H218.254C218.049 35.8017 217.883 35.6385 217.883 35.4364V32.474C217.883 32.2719 218.049 32.1088 218.254 32.1088H221.262C221.467 32.1088 221.633 32.2719 221.633 32.474V35.4364C221.631 35.6385 221.466 35.8017 221.262 35.8017Z" fill="white"/>
<path d="M218.891 39.9439H215.883C215.678 39.9439 215.512 39.7807 215.512 39.5787V36.6163C215.512 36.4142 215.678 36.251 215.883 36.251H218.891C219.096 36.251 219.262 36.4142 219.262 36.6163V39.5787C219.262 39.7807 219.096 39.9439 218.891 39.9439Z" fill="white"/>
<path d="M229.957 39.6226C228.503 39.6226 227.049 39.6088 225.595 39.6301C225.144 39.6364 224.936 39.5536 224.944 39.0389C224.973 37.008 224.964 34.977 224.949 32.946C224.946 32.5419 225.052 32.3812 225.494 32.385C227.881 32.405 230.27 32.4063 232.657 32.3925C233.062 32.39 233.187 32.5268 233.172 32.9109C233.148 33.5084 233.146 34.1084 233.172 34.7059C233.188 35.0962 233.049 35.2306 232.652 35.2243C231.502 35.2055 230.351 35.2193 229.2 35.218C228.911 35.218 228.632 35.1879 228.635 35.6222C228.637 36.0829 228.958 35.9925 229.222 35.9937C230.915 35.9988 232.608 36.0101 234.301 35.9862C234.785 35.9799 235.008 36.0728 234.978 36.6138C234.931 37.4448 234.947 38.2808 234.973 39.1142C234.984 39.5084 234.844 39.6327 234.45 39.6289C232.953 39.6126 231.455 39.6226 229.957 39.6226Z" fill="white"/>
<path d="M228.321 31.7286H225.313C225.108 31.7286 224.942 31.5654 224.942 31.3633V28.401C224.942 28.1989 225.108 28.0357 225.313 28.0357H228.321C228.526 28.0357 228.692 28.1989 228.692 28.401V31.3633C228.692 31.5654 228.525 31.7286 228.321 31.7286Z" fill="white"/>
<path d="M234.609 31.7286H229.669C229.464 31.7286 229.299 31.5654 229.299 31.3633V28.401C229.299 28.1989 229.464 28.0357 229.669 28.0357H234.609C234.815 28.0357 234.98 28.1989 234.98 28.401V31.3633C234.98 31.5654 234.815 31.7286 234.609 31.7286Z" fill="white"/>
<path d="M234.609 36.0063H228.623V35.1967H232.783C232.988 35.1967 233.154 35.0335 233.154 34.8314V32.7502C233.154 32.5481 232.988 32.3849 232.783 32.3849H225.313C225.108 32.3849 224.942 32.5481 224.942 32.7502V32.8343V34.8314V36.3703V39.0025V39.2661C224.942 39.4682 225.108 39.6314 225.313 39.6314H234.609C234.815 39.6314 234.98 39.4682 234.98 39.2661V36.3703C234.98 36.1695 234.815 36.0063 234.609 36.0063Z" fill="white"/>
<path d="M240.074 31.7292H237.067C236.861 31.7292 236.696 31.566 236.696 31.3639V28.4016C236.696 28.1995 236.861 28.0363 237.067 28.0363H240.074C240.28 28.0363 240.445 28.1995 240.445 28.4016V31.3639C240.444 31.566 240.278 31.7292 240.074 31.7292Z" fill="white"/>
<path d="M245.846 34.8026H244.616H244.56C244.396 34.8026 244.262 34.6708 244.262 34.5089V33.8963C244.262 33.7344 244.396 33.6026 244.56 33.6026L244.569 33.6013H245.659C245.888 33.6013 246.076 33.4181 246.076 33.1909V30.2511C246.076 30.0804 245.935 29.9423 245.762 29.9423H245.501C245.079 29.9423 244.736 29.6047 244.736 29.1892V28.3984V28.3419C244.736 28.1712 244.596 28.0331 244.423 28.0331H244.365H243.013H241.371C241.159 28.0331 240.986 28.2026 240.986 28.4122V31.3457C240.986 31.5553 241.159 31.7248 241.371 31.7248H242.298V31.731C242.419 31.7574 242.509 31.8629 242.509 31.9896V32.134C242.509 32.252 242.432 32.3499 242.323 32.3838C242.322 32.3838 242.32 32.385 242.318 32.385H237.083C236.87 32.385 236.698 32.5545 236.698 32.7641V39.2499C236.698 39.4595 236.87 39.629 237.083 39.629H240.106C240.293 39.629 240.446 39.4796 240.446 39.2938V35.5369C240.446 35.316 240.628 35.1365 240.853 35.1365H242.049C242.274 35.1365 242.456 35.316 242.456 35.5369V39.2423C242.456 39.4545 242.632 39.6277 242.847 39.6277H243.909H245.846C246.059 39.6277 246.231 39.4582 246.231 39.2486V35.1779C246.231 34.9733 246.059 34.8026 245.846 34.8026Z" fill="white"/>
<path d="M259.583 33.5521H257.799C257.523 33.5521 257.426 33.4567 257.426 33.1843V32.5994C257.427 32.4387 257.287 32.3898 257.206 32.386H256.6H256.384H252.6C252.49 32.386 252.4 32.2981 252.4 32.1889V31.904C252.4 31.7873 252.497 31.6919 252.616 31.6919H254.98C255.221 31.6919 255.416 31.4998 255.416 31.2626V28.4923C255.416 28.255 255.221 28.063 254.98 28.063H250.477C250.189 28.063 249.956 28.2914 249.952 28.5739L249.948 28.9454C249.948 29.2065 249.733 29.4186 249.468 29.4186H249.06C248.776 29.4186 248.545 29.6458 248.545 29.9245L248.539 32.5504C248.539 32.8191 248.759 33.0375 249.033 33.0375H249.758C250.044 33.0375 250.276 33.2659 250.276 33.5471V34.6906C250.276 34.9492 250.483 35.1601 250.746 35.1676C252.11 35.2052 255.966 35.1877 255.966 35.1877C256.135 35.1877 256.27 35.322 256.27 35.4864V35.7061C256.27 35.8718 256.133 36.0048 255.966 36.0048L249.203 36.0249C248.932 36.0249 248.713 36.2408 248.713 36.5069L248.703 39.0952C248.703 39.3613 248.922 39.5772 249.192 39.5772L257.888 39.6061C258.085 39.6073 258.243 39.4504 258.243 39.2584V37.6241C258.243 37.3517 258.467 37.1308 258.744 37.1308H259.601C259.906 37.0868 259.906 36.9161 259.906 36.7266V33.8672C259.903 33.694 259.761 33.5521 259.583 33.5521Z" fill="white"/>
<path d="M259.534 31.6969H256.588C256.383 31.6969 256.218 31.5337 256.218 31.3316V28.4308C256.218 28.2287 256.383 28.0655 256.588 28.0655H259.534C259.739 28.0655 259.905 28.2287 259.905 28.4308V31.3316C259.903 31.5337 259.738 31.6969 259.534 31.6969Z" fill="white"/>
<path d="M266.12 31.6981H263.181C262.987 31.6981 262.83 31.5437 262.83 31.3529V28.4082C262.83 28.2174 262.987 28.063 263.181 28.063H266.12C266.314 28.063 266.47 28.2174 266.47 28.4082V31.3529C266.47 31.5437 266.314 31.6981 266.12 31.6981Z" fill="white"/>
<path d="M272.493 31.6981H267.678C267.484 31.6981 267.327 31.5437 267.327 31.3529V28.4082C267.327 28.2174 267.484 28.063 267.678 28.063H272.493C272.687 28.063 272.843 28.2174 272.843 28.4082V31.3529C272.843 31.5437 272.687 31.6981 272.493 31.6981Z" fill="white"/>
<path d="M272.846 36.5711C272.851 36.472 272.847 36.3891 272.836 36.3188C272.814 36.1092 272.637 35.946 272.418 35.946H267.54H266.67H266.633V35.9423C266.541 35.9259 266.472 35.8469 266.472 35.7515V35.4301C266.472 35.3347 266.541 35.2557 266.633 35.2393V35.2356H266.67H267.54H270.604C270.691 35.2356 270.772 35.2092 270.84 35.1653C270.934 35.1213 270.994 35.0423 271.016 34.9092C271.018 34.8992 271.018 34.8904 271.02 34.8803C271.021 34.8716 271.022 34.8628 271.022 34.854C271.023 34.8427 271.026 34.8326 271.026 34.8213V32.8029C271.026 32.7866 271.023 32.7703 271.021 32.7552C271.007 32.5381 270.91 32.4389 270.723 32.4063C270.684 32.395 270.645 32.3875 270.604 32.3875H263.246C263.181 32.3875 263.12 32.4025 263.065 32.4289C262.974 32.4628 262.91 32.5218 262.87 32.6172C262.842 32.6736 262.824 32.7351 262.824 32.8029V33.305V34.8201V36.3603V37.3921V39.2096C262.824 39.2536 262.833 39.2962 262.846 39.3351C262.884 39.4946 262.974 39.5699 263.116 39.6025C263.157 39.6151 263.2 39.6239 263.245 39.6239H272.416C272.65 39.6239 272.838 39.4381 272.838 39.2084V39.1531C272.841 39.108 272.842 39.0577 272.839 39.0038C272.838 38.9774 272.838 38.951 272.838 38.9259V36.7431C272.842 36.6879 272.842 36.6289 272.846 36.5711Z" fill="white"/>
</g>
<defs>
<clipPath id="clip0_314_1820">
<rect width="121.332" height="60" fill="white" transform="translate(151.667)"/>
</clipPath>
</defs>
</svg>
