<svg width="258" height="20" viewBox="0 0 258 20" fill="none" xmlns="http://www.w3.org/2000/svg">
<path d="M32.1104 6.6683H35.1584C35.5114 6.6683 35.7959 6.95212 35.7959 7.29811V15.6045C35.7959 17.6156 34.1461 19.2455 32.1104 19.2455V17.4426C31.2267 18.7346 29.9654 19.4185 28.3237 19.4915C27.1828 19.5428 26.0419 19.2536 25.0788 18.6454C24.1376 18.0508 23.3988 17.2344 22.8598 16.2019C22.3318 15.1882 22.0691 14.0854 22.0691 12.8934C22.0691 11.7013 22.3318 10.5985 22.8598 9.58487C23.3797 8.58475 24.091 7.79276 24.9885 7.21161C25.8558 6.64938 27.4154 6.26014 28.4496 6.32772C30.0283 6.43043 31.2486 7.1143 32.1077 8.38202V6.6656L32.1104 6.6683ZM28.8956 16.0235C29.7957 16.0235 30.5591 15.7234 31.1802 15.1234C31.8013 14.5233 32.1104 13.78 32.1104 12.8988C32.1104 12.0176 31.8013 11.2851 31.1802 10.6796C30.5755 10.0903 29.8368 9.7876 28.964 9.77408C28.0884 9.76057 27.2375 10.0903 26.6137 10.7012C25.9926 11.3067 25.6834 12.0419 25.6834 12.9015C25.6834 13.761 25.9953 14.5152 26.6219 15.1207C27.2457 15.7261 28.0064 16.0289 28.8983 16.0289L28.8956 16.0235Z" fill="white"/>
<path d="M44.4856 6.31691C46.1272 6.31691 47.4159 6.82779 48.3516 7.84953C49.2874 8.87128 49.7552 10.2796 49.7552 12.0771V15.6072C49.7552 17.6183 48.1054 19.2482 46.0698 19.2482V12.542C46.0698 11.7176 45.8372 11.0553 45.3748 10.5499C44.9124 10.0444 44.3023 9.79301 43.5444 9.79301C42.7865 9.79301 42.1654 10.0444 41.7003 10.5417C41.2379 11.0418 41.0053 11.7068 41.0053 12.5393V15.6018C41.0053 17.6129 39.3555 19.2428 37.3198 19.2428V7.29811C37.3198 6.94942 37.6071 6.66831 37.9573 6.66831H41.0053V8.23336C41.8562 6.95753 43.0163 6.31691 44.4883 6.31691H44.4856Z" fill="white"/>
<path d="M64.7407 0.50547V15.6073C64.7407 17.6183 63.0909 19.2483 61.0553 19.2483V17.4453C60.1715 18.7374 58.9102 19.4213 57.2686 19.4942C56.1276 19.5456 54.9867 19.2564 54.0236 18.6482C53.0824 18.0535 52.3436 17.2372 51.8046 16.2047C51.2766 15.191 51.0139 14.0882 51.0139 12.8962C51.0139 11.7041 51.2766 10.6013 51.8046 9.58765C52.3245 8.58753 53.0359 7.79554 53.936 7.21439C54.8034 6.65216 56.3602 6.26562 57.3944 6.3305C58.9731 6.43321 60.1934 7.11708 61.0525 8.3848V4.14645C61.0525 2.1354 62.7024 0.50547 64.738 0.50547H64.7407ZM57.8404 16.0236C58.7406 16.0236 59.5039 15.7235 60.125 15.1234C60.7461 14.5234 61.0553 13.78 61.0553 12.8989C61.0553 12.0177 60.7461 11.2851 60.125 10.6797C59.5203 10.0904 58.7789 9.78767 57.9061 9.77145C57.0305 9.75794 56.1796 10.0877 55.5585 10.6959C54.9374 11.3041 54.6255 12.0366 54.6255 12.8962C54.6255 13.7557 54.9374 14.5099 55.564 15.1153C56.1878 15.7208 56.9484 16.0236 57.8404 16.0236Z" fill="white"/>
<path d="M4.1833 9.65516C4.1833 7.85494 5.09168 7.08188 5.55954 6.80347C5.62247 6.76562 5.59511 6.67102 5.52124 6.67102H3.0834C1.61414 6.67102 0.42395 7.84954 0.42395 9.29836V19.4996C2.50883 19.4996 4.19698 17.8318 4.19698 15.7721L4.1833 9.65516Z" fill="white"/>
<path d="M2.29829 5.01676C2.92485 5.01676 3.46386 4.79241 3.91804 4.34641C4.36949 3.90041 4.59659 3.36521 4.59659 2.74622C4.59659 2.12722 4.36949 1.60824 3.91804 1.16495C3.46659 0.721648 2.92485 0.5 2.29829 0.5C1.67173 0.5 1.13273 0.721648 0.678544 1.16495C0.227093 1.60824 0 2.13533 0 2.74622C0 3.3571 0.227093 3.89771 0.678544 4.34641C1.12999 4.79241 1.67173 5.01676 2.29829 5.01676Z" fill="white"/>
<path d="M20.8188 0.505451V15.8532C20.8188 17.8643 19.1689 19.4942 17.1333 19.4942V4.14643C17.1333 2.13538 18.7831 0.505451 20.8188 0.505451Z" fill="white"/>
<path d="M12.791 4.54918C13.2014 4.22482 13.7377 4.05993 14.4025 4.05453H15.4039V1.13526C15.4039 0.786566 15.1166 0.505451 14.7664 0.505451C14.7664 0.505451 13.6036 0.505451 13.5899 0.505451C12.0222 0.505451 10.769 0.991996 9.8251 1.96238C8.88116 2.93277 8.40782 4.25726 8.40782 5.96016V6.66836C6.74156 6.66836 5.38721 8.00365 5.38721 9.6525V10.2174H8.40782V19.4996C10.4845 19.4996 12.1672 17.8373 12.1672 15.7857V10.2174C13.9538 10.2174 15.4039 8.78483 15.4039 7.01975V6.67106H12.1672V5.9953C12.1672 5.32495 12.3751 4.88166 12.7937 4.54918H12.791Z" fill="white"/>
<path d="M93.7407 18L77.7407 2" stroke="white" stroke-width="2.5" stroke-miterlimit="10"/>
<path d="M77.7407 18L93.7407 2" stroke="white" stroke-width="2.5" stroke-miterlimit="10"/>
<path d="M106.741 3.00267H110.886V16.9995H106.741V3.00267Z" fill="white"/>
<path d="M114.507 3.0016H118.756L125.355 13.0378H125.468C125.272 11.5575 125.313 3.0016 125.313 3.0016H128.888V16.9985H124.639L118.04 6.96223H117.927C118.123 8.50554 118.138 16.9985 118.138 16.9985H114.507V3.0016Z" fill="white"/>
<path d="M136.103 5.65515H131.056V3.0016H145.298V5.65515H140.25V16.9985H136.105V5.65515H136.103Z" fill="white"/>
<path d="M147.457 3.0016H158.949V5.65515H151.604V8.46617H157.857V11.1197H151.604V14.3449H159.231V16.9985H147.459V3.0016H147.457Z" fill="white"/>
<path d="M176.74 16.9984L172.59 11.4C174.549 10.7244 175.856 9.41732 175.856 7.35905C175.856 4.0315 172.668 3 168.778 3H162.173V16.9969H166.318V11.9622H168.599L172.101 17H176.74V16.9984ZM166.318 5.51338H168.44C170.62 5.51338 171.792 5.9748 171.792 7.35905C171.792 8.73543 170.62 9.44725 168.44 9.44725H166.318V5.51338Z" fill="white"/>
<path d="M184.992 7.33193H181.207C180.949 7.33193 180.74 7.14051 180.74 6.90345V3.42848C180.74 3.19142 180.949 3 181.207 3H184.992C185.251 3 185.459 3.19142 185.459 3.42848V6.90345C185.457 7.14051 185.249 7.33193 184.992 7.33193Z" fill="white"/>
<path d="M194.959 7.33193H191.173C190.915 7.33193 190.707 7.14051 190.707 6.90345V3.42848C190.707 3.19142 190.915 3 191.173 3H194.959C195.217 3 195.425 3.19142 195.425 3.42848V6.90345C195.424 7.14051 195.215 7.33193 194.959 7.33193Z" fill="white"/>
<path d="M187.079 12.1409H183.294C183.036 12.1409 182.827 11.9495 182.827 11.7124V8.23745C182.827 8.00039 183.036 7.80898 183.294 7.80898H187.079C187.337 7.80898 187.546 8.00039 187.546 8.23745V11.7124C187.546 11.9495 187.337 12.1409 187.079 12.1409Z" fill="white"/>
<path d="M192.822 12.1409H189.037C188.779 12.1409 188.57 11.9495 188.57 11.7124V8.23745C188.57 8.00039 188.779 7.80898 189.037 7.80898H192.822C193.081 7.80898 193.289 8.00039 193.289 8.23745V11.7124C193.287 11.9495 193.079 12.1409 192.822 12.1409Z" fill="white"/>
<path d="M189.84 17H186.054C185.796 17 185.588 16.8086 185.588 16.5715V13.0965C185.588 12.8595 185.796 12.668 186.054 12.668H189.84C190.098 12.668 190.306 12.8595 190.306 13.0965V16.5715C190.306 16.8086 190.098 17 189.84 17Z" fill="white"/>
<path d="M203.765 16.6231C201.935 16.6231 200.105 16.6069 198.275 16.6319C197.707 16.6393 197.446 16.5421 197.455 15.9384C197.492 13.556 197.481 11.1735 197.462 8.79112C197.458 8.317 197.592 8.12852 198.148 8.13294C201.152 8.1565 204.158 8.15797 207.162 8.14178C207.672 8.13883 207.829 8.29933 207.81 8.7499C207.779 9.45078 207.778 10.1546 207.81 10.8555C207.831 11.3134 207.656 11.471 207.155 11.4636C205.709 11.4415 204.26 11.4577 202.812 11.4562C202.448 11.4562 202.097 11.4209 202.1 11.9304C202.103 12.4708 202.507 12.3647 202.839 12.3662C204.969 12.3721 207.101 12.3854 209.231 12.3574C209.84 12.35 210.121 12.459 210.082 13.0936C210.023 14.0684 210.044 15.049 210.076 16.0267C210.09 16.4891 209.914 16.6348 209.418 16.6304C207.534 16.6113 205.649 16.6231 203.765 16.6231Z" fill="white"/>
<path d="M201.706 7.3628H197.921C197.662 7.3628 197.454 7.17138 197.454 6.93432V3.45935C197.454 3.22228 197.662 3.03087 197.921 3.03087H201.706C201.964 3.03087 202.172 3.22228 202.172 3.45935V6.93432C202.172 7.17138 201.962 7.3628 201.706 7.3628Z" fill="white"/>
<path d="M209.62 7.36278H203.403C203.145 7.36278 202.936 7.17137 202.936 6.9343V3.45933C202.936 3.22227 203.145 3.03085 203.403 3.03085H209.62C209.878 3.03085 210.086 3.22227 210.086 3.45933V6.9343C210.086 7.17137 209.878 7.36278 209.62 7.36278Z" fill="white"/>
<path d="M209.619 12.3809H202.086V11.4312H207.321C207.579 11.4312 207.788 11.2398 207.788 11.0027V8.5614C207.788 8.32434 207.579 8.13292 207.321 8.13292H197.921C197.662 8.13292 197.454 8.32434 197.454 8.5614V8.66005V11.0027V12.8079V15.8956V16.2049C197.454 16.4419 197.662 16.6333 197.921 16.6333H209.619C209.877 16.6333 210.086 16.4419 210.086 16.2049V12.8079C210.086 12.5723 209.877 12.3809 209.619 12.3809Z" fill="white"/>
<path d="M216.497 7.36411H212.712C212.454 7.36411 212.245 7.17269 212.245 6.93563V3.46066C212.245 3.2236 212.454 3.03218 212.712 3.03218H216.497C216.755 3.03218 216.964 3.2236 216.964 3.46066V6.93563C216.962 7.17269 216.754 7.36411 216.497 7.36411Z" fill="white"/>
<path d="M223.76 10.9689H222.213H222.142C221.935 10.9689 221.767 10.8143 221.767 10.6243V9.90576C221.767 9.71582 221.935 9.56121 222.142 9.56121L222.153 9.55974H223.525C223.813 9.55974 224.049 9.34476 224.049 9.07825V5.62978C224.049 5.42953 223.873 5.26756 223.655 5.26756H223.326C222.795 5.26756 222.363 4.87147 222.363 4.38409V3.45646V3.39019C222.363 3.18994 222.187 3.02797 221.969 3.02797H221.897H220.195H218.129C217.861 3.02797 217.645 3.22675 217.645 3.47265V6.91375C217.645 7.15965 217.861 7.35843 218.129 7.35843H219.295V7.36579C219.448 7.39672 219.561 7.5204 219.561 7.66912V7.83845C219.561 7.97686 219.464 8.09171 219.327 8.13146C219.326 8.13146 219.322 8.13294 219.321 8.13294H212.732C212.464 8.13294 212.248 8.33172 212.248 8.57762V16.1857C212.248 16.4316 212.464 16.6304 212.732 16.6304H216.537C216.772 16.6304 216.965 16.4552 216.965 16.2373V11.8302C216.965 11.5711 217.194 11.3605 217.476 11.3605H218.982C219.265 11.3605 219.494 11.5711 219.494 11.8302V16.1769C219.494 16.4257 219.715 16.6289 219.986 16.6289H221.322H223.76C224.028 16.6289 224.245 16.4302 224.245 16.1843V11.4091C224.245 11.1691 224.028 10.9689 223.76 10.9689Z" fill="white"/>
<path d="M241.048 9.50228H238.802C238.454 9.50228 238.332 9.39038 238.332 9.07086V8.3847C238.334 8.19623 238.157 8.1388 238.056 8.13439H237.293H237.022H232.26C232.12 8.13439 232.008 8.03131 232.008 7.90321V7.56897C232.008 7.43203 232.13 7.32012 232.279 7.32012H235.254C235.558 7.32012 235.803 7.09484 235.803 6.81655V3.56686C235.803 3.28857 235.558 3.06329 235.254 3.06329H229.588C229.225 3.06329 228.932 3.33127 228.927 3.66257L228.922 4.09841C228.922 4.40468 228.651 4.65352 228.318 4.65352H227.804C227.447 4.65352 227.156 4.92004 227.156 5.24692L227.148 8.32728C227.148 8.64238 227.426 8.89858 227.771 8.89858H228.683C229.043 8.89858 229.335 9.16657 229.335 9.4964V10.8378C229.335 11.1411 229.596 11.3885 229.926 11.3973C231.642 11.4415 236.496 11.4209 236.496 11.4209C236.707 11.4209 236.877 11.5784 236.877 11.7713V12.029C236.877 12.2234 236.706 12.3794 236.496 12.3794L227.984 12.403C227.644 12.403 227.368 12.6563 227.368 12.9684L227.355 16.0046C227.355 16.3168 227.631 16.57 227.971 16.57L238.914 16.6039C239.161 16.6054 239.36 16.4213 239.36 16.196V14.2789C239.36 13.9594 239.643 13.7002 239.991 13.7002H241.07C241.453 13.6487 241.453 13.4484 241.453 13.2261V9.87187C241.45 9.66867 241.27 9.50228 241.048 9.50228Z" fill="white"/>
<path d="M240.985 7.32621H237.278C237.02 7.32621 236.812 7.13479 236.812 6.89773V3.49491C236.812 3.25785 237.02 3.06643 237.278 3.06643H240.985C241.243 3.06643 241.452 3.25785 241.452 3.49491V6.89773C241.45 7.13479 241.242 7.32621 240.985 7.32621Z" fill="white"/>
<path d="M249.273 7.32748H245.574C245.331 7.32748 245.133 7.14637 245.133 6.92255V3.4682C245.133 3.24439 245.331 3.06328 245.574 3.06328H249.273C249.517 3.06328 249.714 3.24439 249.714 3.4682V6.92255C249.714 7.14637 249.517 7.32748 249.273 7.32748Z" fill="white"/>
<path d="M257.293 7.32748H251.234C250.99 7.32748 250.793 7.14637 250.793 6.92255V3.4682C250.793 3.24439 250.99 3.06328 251.234 3.06328H257.293C257.537 3.06328 257.734 3.24439 257.734 3.4682V6.92255C257.734 7.14637 257.537 7.32748 257.293 7.32748Z" fill="white"/>
<path d="M257.738 13.0435C257.744 12.9271 257.739 12.83 257.725 12.7475C257.698 12.5016 257.475 12.3102 257.199 12.3102H251.061H249.965H249.919V12.3058C249.803 12.2866 249.717 12.1939 249.717 12.082V11.705C249.717 11.5931 249.803 11.5003 249.919 11.4812V11.4768H249.965H251.061H254.916C255.026 11.4768 255.128 11.4459 255.213 11.3943C255.332 11.3428 255.407 11.25 255.435 11.094C255.438 11.0822 255.438 11.0719 255.439 11.0601C255.441 11.0498 255.443 11.0395 255.443 11.0292C255.444 11.0159 255.447 11.0041 255.447 10.9909V8.62319C255.447 8.60405 255.444 8.58491 255.441 8.56724C255.423 8.31251 255.301 8.19618 255.066 8.1579C255.018 8.14465 254.968 8.13581 254.916 8.13581H245.657C245.576 8.13581 245.499 8.15348 245.43 8.1844C245.314 8.22416 245.234 8.29336 245.184 8.40527C245.149 8.47153 245.126 8.54368 245.126 8.62319V9.21217V10.9894V12.7961V14.0064V16.1385C245.126 16.1901 245.138 16.2401 245.154 16.2858C245.202 16.4728 245.314 16.5611 245.494 16.5994C245.545 16.6141 245.6 16.6245 245.656 16.6245H257.197C257.491 16.6245 257.728 16.4065 257.728 16.1371V16.0723C257.731 16.0193 257.733 15.9604 257.73 15.8971C257.728 15.8661 257.728 15.8352 257.728 15.8058V13.2452C257.733 13.1804 257.733 13.1112 257.738 13.0435Z" fill="white"/>
</svg>
